<svg version="1.2" xmlns="http://www.w3.org/2000/svg" viewBox="0 0 449 62" width="449" height="62"><defs><clipPath clipPathUnits="userSpaceOnUse" id="cp1"><path d="m-1072-830h2049v1152h-2049z"/></clipPath></defs><style>.a{fill:#9e1924}</style><g clip-path="url(#cp1)"><path class="a" d="m442 61c-11 0.9-22.2 0.3-33.2 0.3q-17.4-0.1-34.8-0.2c-85.4-0.5-283.9-0.2-369.3 0.2-3.3 0-3.6-9.9-3.7-11.9-0.1-1.9-0.4-12.2 2.8-12.2q19 0.1 38 0.3c-0.7-3.9-0.8-9.1-0.2-13q-6.5 0-12.9 0.1-0.3 0.1-0.6 0.1-5 0-10 0c-1 0-1.7-0.8-2.3-1.9q-0.1-0.3-0.2-0.6c0.8-0.9 1.7-1.5 2.8-2l2.4-1c0 0-3-0.1-6.1 0.1-0.5-2.6-0.7-5.3-0.8-6.4-0.1-1.4-0.6-8.1 0.7-10.9 0.4-0.8 0.9-1.3 1.6-1.3q6.2-0.1 12.3-0.1c0.3 0 0.5 0.1 0.7 0.2 17.3 0.3 34.5 0.7 51.8 0.8 40.5 0.1 81-0.1 121.5-0.1 20.1 0 153.2 0 173.2-0.1 10.4 0 20.8 0 31.2-0.2 11.9-0.1 23.8-0.9 35.7-0.5 2.1 0.1 2.7 6 2.1 12l-6.5 1.7c0 0 5.7 0 6.1 1.2v0.1c-0.8 4.7-2.3 8.7-4.5 8.9-2.9 0.3-5.9 0.2-8.9 0 0.1 3.7-0.6 8.6-1.9 12.4q9 0.1 18 0.5c3.7 0.2 0.5 23.1-5 23.5z"/></g></svg>