<svg version="1.2" xmlns="http://www.w3.org/2000/svg" viewBox="0 0 109 130" width="109" height="130"><defs><clipPath clipPathUnits="userSpaceOnUse" id="cp1"><path d="m-283-73h1025v576h-1025z"/></clipPath></defs><style>.a{fill:#9e1924}</style><g clip-path="url(#cp1)"><path fill-rule="evenodd" class="a" d="m61.6 2.6l6.9 5.1c1.9 1.4 3.8 2.1 6.2 2.3l8.5 0.5c5.2 0.2 9.3 3.7 10.5 8.7l2 8.4c0.5 2.3 1.6 4.1 3.3 5.7l6.2 5.8c3.8 3.6 4.7 8.9 2.4 13.5l-3.9 7.6c-1 2.1-1.4 4.2-1.1 6.5l1 8.5c0.6 5.1-2.1 9.9-6.8 11.9l-7.9 3.3c-2.2 1-3.8 2.3-5.1 4.3l-4.7 7.2c-2.8 4.3-7.9 6.1-12.8 4.6l-8.2-2.5c-2.3-0.6-4.4-0.6-6.6 0l-8.2 2.5c-5 1.5-10.1-0.3-12.9-4.6l-4.7-7.2c-1.3-2-2.9-3.3-5-4.3l-7.9-3.3c-4.8-2-7.5-6.8-6.9-11.9l1.1-8.5c0.2-2.3-0.1-4.4-1.2-6.5l-3.9-7.6c-2.3-4.6-1.3-9.9 2.4-13.5l6.3-5.8c1.7-1.6 2.7-3.4 3.3-5.7l1.9-8.4c1.2-5 5.4-8.5 10.5-8.7l8.6-0.5c2.3-0.2 4.3-0.9 6.2-2.3l6.8-5.1c4.2-3.1 9.6-3.1 13.7 0zm-6.8 13.9c-10.3 0-19.6 4.2-26.3 10.9-6.7 6.7-10.9 16-10.9 26.3 0 10.2 4.2 19.5 10.9 26.2 6.7 6.7 16 10.9 26.3 10.9 10.2 0 19.5-4.2 26.2-10.9 6.8-6.7 10.9-16 10.9-26.2 0-10.3-4.1-19.6-10.9-26.3-6.7-6.7-16-10.9-26.2-10.9zm32.9 37.2c0 9-3.7 17.3-9.6 23.2-6 6-14.2 9.7-23.3 9.7-9.1 0-17.4-3.7-23.3-9.7-6-5.9-9.7-14.2-9.7-23.2 0-9.1 3.7-17.4 9.7-23.3 5.9-6 14.2-9.7 23.3-9.7 9.1 0 17.3 3.7 23.3 9.7 5.9 5.9 9.6 14.2 9.6 23.3zm-37.3 2.9l-7.5-7.5c-1.9-1.9-5-1.9-7 0-1.9 2-1.9 5.1 0 7l11 11c1.9 1.9 5.1 1.9 7 0 6.6-6.6 13.1-13.3 19.7-19.9 1.9-2 1.9-5.1 0-7-1.9-1.9-5.1-1.9-7 0zm32.3 47.6l4.3-6.6 10.1 21.7c0.1 0.3 0.1 0.6-0.1 0.8-0.2 0.2-0.4 0.3-0.7 0.3l-11.9-2.1-6.1 10.5c-0.2 0.2-0.4 0.4-0.7 0.3-0.3 0-0.6-0.1-0.7-0.4l-8.1-17.5c5.4 0.3 10.7-2.2 13.9-7zm-49.7 24.5c-0.1 0.3-0.4 0.4-0.7 0.4-0.3 0.1-0.5-0.1-0.7-0.3l-6.1-10.5-11.9 2.1c-0.3 0-0.6-0.1-0.7-0.3-0.2-0.2-0.2-0.5-0.1-0.8l10-21.5 4.1 6.4c3.2 4.8 8.7 7.4 14.3 7z"/></g></svg>