<svg version="1.2" xmlns="http://www.w3.org/2000/svg" viewBox="0 0 148 131" width="148" height="131"><defs><clipPath clipPathUnits="userSpaceOnUse" id="cp1"><path d="m-489-77h1025v576h-1025z"/></clipPath></defs><style>.a{fill:#9e1924}</style><g clip-path="url(#cp1)"><path fill-rule="evenodd" class="a" d="m53.6 23c-2.6-2.4-4.1-5.8-4.1-9.6 0-7.2 5.9-13.1 13.1-13.1 6.7 0 12.3 5 13.1 11.5 2.1-6.7 8.4-11.5 15.8-11.5 7.7 0 14.3 5.3 16 12.6 0.3-7 6.1-12.6 13.2-12.6 7.2 0 13.2 5.9 13.2 13.1 0 3.6-1.5 6.9-3.8 9.3 8.4 2.8 14.5 10.7 14.5 20.1v9.6c0 1.3-1.1 2.5-2.5 2.5h-20.1q0.2 1.6 0.2 3.4v9.9c0 1.4-1.1 2.5-2.5 2.5h-54.8c-1.4 0-2.5-1.1-2.5-2.5v-9.9q0-1.8 0.2-3.4h-20.1c-1.4 0-2.5-1.2-2.5-2.5v-9.6c0-9 5.7-16.7 13.6-19.8zm69.8 3.6h-4.1c-4.8 0-9.3 2.1-12.4 5.6 6.8 3.8 11.9 10.2 14.1 17.7h18.6v-7.1c0-9-7.2-16.2-16.2-16.2zm-10.9-13.2c0 4.5 3.7 8.2 8.2 8.2 4.5 0 8.2-3.7 8.2-8.2 0-4.5-3.7-8.2-8.2-8.2-4.5 0-8.2 3.7-8.2 8.2zm-10.9 16.5q0.4 0.1 0.7 0.2c2.4-3.2 5.7-5.7 9.4-7.1-1.7-1.6-3-3.7-3.7-6 0 5.2-2.5 9.9-6.4 12.9zm-21.8-13.1c0 6.4 5.2 11.7 11.7 11.7 6.4 0 11.6-5.2 11.6-11.7 0-6.4-5.3-11.6-11.6-11.6-6.5 0-11.7 5.3-11.7 11.6zm-12.4 41.5v7.4h49.8v-7.4c0-13.7-11.2-24.9-24.9-24.9-13.7 0-24.9 11.2-24.9 24.9zm4.6-35.6q2.7 0.9 5.1 2.5c-1.2-2.1-2-4.6-2.2-7.1-0.6 1.7-1.7 3.3-2.9 4.6zm-17.6-9.3c0 4.5 3.7 8.2 8.2 8.2 4.5 0 8.2-3.7 8.2-8.2 0-4.5-3.7-8.2-8.2-8.2-4.5 0-8.2 3.7-8.2 8.2zm-9.4 29.4v7.1h18.6c2.2-7.5 7.3-13.8 14.1-17.6-3.1-3.6-7.6-5.7-12.4-5.7h-4.1c-9 0-16.2 7.2-16.2 16.2zm-19.2 32.1v3.8h9.8l4.2-1.8c11.3-5.1 24.1-3.7 34.3 3.7q0.4 0.3 0.7 0.7c0.8 1.4 2.1 2.2 3.5 2.2h24c4.9 0 9 4.2 9.1 9.4q0 0.4 0 0.7l21.6-17.5c3.7-3.1 9-2.8 12.2 0.9 3.3 3.6 3.5 9.5 0.4 13.3q-0.2 0.2-0.4 0.4l-43.2 35.2q-0.4 0.3-0.8 0.4c-6.7 2.5-12.3 3.8-18 3.8-5.6 0-11.2-1.2-17.9-3.7l-29.5-9.4h-10v4c0 1.3-1.1 2.5-2.5 2.5h-20.7c-1.3 0-2.5-1.2-2.5-2.5v-46.1c0-1.3 1.2-2.5 2.5-2.5h20.7c1.4 0 2.5 1.2 2.5 2.5zm-5 2.5h-15.7v34.9c0-4.2 3.4-7.5 7.5-7.5 4.1 0 7.5 3.3 7.5 7.5 0 2.6-1.4 4.8-3.4 6.2h4.1zm-15.7 41h3.4c-2-1.3-3.4-3.6-3.4-6.2zm10-6.2c0-1.4-1.1-2.5-2.5-2.5-1.4 0-2.5 1.1-2.5 2.5 0 1.4 1.1 2.5 2.5 2.5 1.4 0 2.5-1.1 2.5-2.5zm21.1-28.6h-10.4v28.3h10.5q0.3 0.1 0.7 0.2l30 9.5c0 0 0 0 0.1 0 12.2 4.5 20 4.6 32.1 0.2l42.7-34.9c1.5-1.9 1.3-4.9-0.3-6.7-1.4-1.5-3.7-1.7-5.3-0.3 0 0 0 0 0 0l-22.9 18.5c-2.6 2.1-5.5 3.4-8.6 4q-1.1 0.3-2.2 0.3h-27.9c-1.3 0-2.5-1.1-2.5-2.5 0-1.4 1.2-2.5 2.5-2.5h26.8q1 0 2.1-0.2c0.5-0.2 1.1-0.5 1.5-1 0.9-0.9 1.4-2.2 1.4-3.6-0.1-2.4-1.9-4.5-4.2-4.5h-24c-3 0-5.7-1.5-7.5-4.1-8.6-6-19.4-7.2-29-2.9l-4.6 2.1q-0.5 0.2-1 0.2z"/></g></svg>