<svg version="1.2" xmlns="http://www.w3.org/2000/svg" viewBox="0 0 162 38" width="162" height="38"><defs><clipPath clipPathUnits="userSpaceOnUse" id="cp1"><path d="m-201-2719h1025v3191h-1025z"/></clipPath></defs><style>.a{fill:#f0b215}</style><g clip-path="url(#cp1)"><path fill-rule="evenodd" class="a" d="m157.9 26.8c-4.2 2.8-9 4-14.2 4.9-5.3 1-10.5 2-15.8 2.6-5.8 0.7-11.6 1.5-17.5 2-11.8 0.8-23.6 0.9-35.3 0.9-8.3 0-16.1 0.3-24.7 0-8.5-0.3-17-0.7-25.4-2.1q-5.8-0.8-11.5-2.3-2.1-0.5-4.1-1.3-2.3-1-4.5-2.5-2.2-1.5-3.5-3.9c-1.3-3-1.3-6.9 0.8-9.7 1-1.3 2.3-2.2 3.6-3.2 2.7-2.2 5.8-3.7 9-4.9 2.3-0.8 4.6-1.4 7-2 2.9-0.9 5.9-1.5 8.8-2 8.8-1.7 17.8-2.3 26.7-2.7 7.8-0.3 15.5-0.6 23.3-0.5 4.8 0 9.6-0.1 14.4 0.1 4.3 0.1 8.6 0.5 12.9 0.8 6.3 0.4 12.5 0.8 18.6 1.8 3.3 0.5 6.4 1.2 9.6 1.9 2.4 0.8 4.8 1.6 7.3 2.5l1.1 0.5 4.9 1.2q3.2 0.7 6.1 2.3c0.9 0.5 1.5 0.6 2.6 1.6 1.1 1 2.1 2.2 2.6 3.6 1.5 3.7 0.4 8-2.8 10.4zm-125.3-20.9l3.1-0.3c3.3-0.4 6.6-0.8 9.9-1.2l3.7-0.3q-8.4 0.5-16.7 1.8zm126.9 12.3c-0.2-0.6-0.5-0.8-1.1-1.6-1.1-1.4-1.9-1.7-3.6-2.6q-1.1-0.6-2.2-1 0.1 0.2 0.2 0.4 0.1 0.9-0.3 1.6c-0.1 0.2-0.3 0.4-0.6 0.3-0.2 0-0.3-0.2-0.5-0.4q-1-0.9-2.1-1.6c-1.6-1-3.4-1.7-5.1-2.6l-2.4-0.5q-11.9-2.7-23.9-3.8c-6.2-0.5-12.2-1-18.3-1.2-6.7-0.1-13.4 0-20 0.1-3.8 0.1-7.6 0.3-11.4 0.5-6.1 0.2-12.1 0.7-18.1 1.2-4.9 0.4-9.7 1.1-14.6 1.7q-10.3 1-20.6 2.1-0.2 0-0.4-0.2c-2.7 1-5.4 2.3-7.4 3.9-2.8 2.1-4.8 3.2-5.1 6q0 0.8 0.2 1.7c0.5 1.3 0.1 0.5 0.8 1.6 1.2 1.5 1.7 1.9 3.2 2.9q1.8 1.1 3.8 2c2.3 0.8 3.8 1.2 6 1.7 4.7 1.1 9.5 1.8 14.3 2.4 8.3 1 16.6 1.3 25 1.5 7.7 0 15.5-0.2 23.2-0.2 10.6 0 21.2-0.2 31.9-0.8 5.6-0.5 11.3-1.3 16.9-2 4.6-0.5 8.7-1.2 13.6-2.1 4.9-0.9 9-1.7 13.3-3.5 1.3-0.6 3.2-1.6 3.7-2.1q0.9-0.9 1.5-2c0.3-0.9 0.3-0.4 0.5-1.6q0-0.9-0.4-1.8z"/></g></svg>