<svg version="1.2" xmlns="http://www.w3.org/2000/svg" viewBox="0 0 75 116" width="75" height="116"><defs><clipPath clipPathUnits="userSpaceOnUse" id="cp1"><path d="m-1511-892h2049v1152h-2049z"/></clipPath><clipPath clipPathUnits="userSpaceOnUse" id="cp2"><path d="m99.14 50.32l-38.97 65.88-85.25-50.43 38.97-65.87z"/></clipPath></defs><style>.a{fill:#f0b215}</style><g clip-path="url(#cp1)"><g clip-path="url(#cp2)"><path class="a" d="m74 70.8c0.5 0.2 0.7 0.7 0.6 1.1-0.1 0.5-0.3 0.9-0.8 1-0.5 0.1-0.9 0.1-1.3 0.1q-2 0-4-0.1-2.7-0.1-5.4-0.1-2-0.1-4.1-0.1-1.9-0.1-3.7-0.1-2.1 0-4.2 0-2.3 0-4.7 0-2.2 0-4.5 0-1.9 0-3.8 0-1.7 0-3.4-0.1c-0.9 0-1.1-0.6-1.1-1.1 0-0.6 0.5-1 1.1-1.1 2.3-0.2 4.7-0.2 7.1-0.2 1.6 0 3.3 0 4.9 0q2.4 0 4.8 0 2.4 0 4.9 0 1.5 0 3 0 2.9 0.1 5.7 0.2 2.1 0 4.1 0.1 1.9 0.1 3.8 0.1c0.4 0 0.7 0.1 1 0.3zm-72.7-32c-0.4-0.3-0.6-0.8-0.4-1.4q0.4-1.1 0.8-2.1 0.5-0.9 0.9-1.9c0.1-0.4 0.3-0.7 0.5-1.1q0.9-1.9 1.7-3.9c0.5-1.4 0.9-2.8 1.4-4.2 1.2-3.3 2.2-6.7 3.2-10.1q1.4-4.6 2.7-9.2 0.4-1.5 0.9-3c0.1-0.2 0.2-0.5 0.3-0.7 0.2-0.5 0.8-0.8 1.3-0.7 0.6 0.2 0.9 0.7 0.8 1.4q-0.2 1.1-0.5 2.3-1.6 5.5-3.3 11.1c-0.6 2.2-1.2 4.4-1.9 6.5q-1.1 3.2-2.2 6.3-0.6 1.9-1.4 3.7c-0.5 1.1-1 2.2-1.5 3.2-0.5 1-1 1.9-1.5 2.8q-0.1 0.2-0.1 0.4c-0.3 0.7-1.2 1-1.7 0.6zm48.5-11.4c0.6 0.3 0.8 1 0.4 1.7-0.3 0.5-0.6 0.8-1 1.2q-1.7 2-3.5 4-2.3 2.5-4.7 4.9-3.2 3-6.4 6-2.2 2-4.4 4-2.4 2.3-4.8 4.5c-0.3 0.2-0.5 0.4-0.8 0.5-0.6 0.2-1 0.1-1.2-0.4-0.3-0.5-0.3-1 0.1-1.4 0.2-0.3 0.5-0.5 0.7-0.8 1.8-1.9 3.7-3.6 5.6-5.4q3-2.7 6-5.6c2.1-1.9 4.2-3.9 6.2-5.9q2-2.2 3.9-4.4 1-1.1 2-2.2 0.3-0.4 0.6-0.6c0.4-0.3 0.9-0.4 1.3-0.1zm8.5 87.7c-1.1-0.9-2.4-1.5-3.6-2.3-0.8-0.6-1.7-1.1-2.6-1.7-4.7-2.7-9.3-5.5-14-8.2-1.8-1.1-3.7-2.1-5.5-3.2-1-0.7-2.1-1.3-3-2.1-0.3-0.3-0.6-0.6-0.7-1.1q-0.1-0.7 0.4-1.1c0.4-0.2 0.8-0.3 1.1-0.1q0.6 0.4 1.1 0.8 0.3 0.2 0.5 0.4c2.4 1.4 4.7 2.8 7.1 4.1 2.5 1.4 4.8 2.9 7.3 4.3q2.9 1.5 5.7 3.3c1.7 1 3.4 2 5.1 3.1 0.8 0.5 1.6 1 2.5 1.5q0.5 0.4 1 0.9c0.3 0.4 0.4 1 0.1 1.4-0.2 0.4-0.7 0.6-1.2 0.5-0.4-0.1-0.9-0.3-1.3-0.5z"/></g></g></svg>